<svg width="21" height="21" viewBox="0 0 21 21" fill="none" xmlns="http://www.w3.org/2000/svg">
<path d="M4.66669 7.778C4.66669 6.95278 4.9945 6.16136 5.57802 5.57784C6.16154 4.99432 6.95297 4.6665 7.77819 4.6665H17.8885C18.2971 4.6665 18.7017 4.74699 19.0792 4.90335C19.4567 5.05972 19.7998 5.28891 20.0887 5.57784C20.3776 5.86677 20.6068 6.20978 20.7632 6.58728C20.9195 6.96479 21 7.3694 21 7.778V17.8883C21 18.2969 20.9195 18.7016 20.7632 19.0791C20.6068 19.4566 20.3776 19.7996 20.0887 20.0885C19.7998 20.3774 19.4567 20.6066 19.0792 20.763C18.7017 20.9194 18.2971 20.9998 17.8885 20.9998H7.77819C7.36958 20.9998 6.96497 20.9194 6.58747 20.763C6.20996 20.6066 5.86695 20.3774 5.57802 20.0885C5.28909 19.7996 5.0599 19.4566 4.90354 19.0791C4.74717 18.7016 4.66669 18.2969 4.66669 17.8883V7.778Z" stroke="#66A5CF" stroke-width="2" stroke-linecap="round" stroke-linejoin="round"/>
<path d="M1.18067 16.0265C0.8225 15.823 0.524591 15.5283 0.317217 15.1724C0.109843 14.8164 0.000396355 14.4119 0 14V2.33333C0 1.05 1.05 0 2.33333 0H14C14.875 0 15.351 0.449167 15.75 1.16667" stroke="#66A5CF" stroke-width="2" stroke-linecap="round" stroke-linejoin="round"/>
</svg>
