<svg width="17" height="21" viewBox="0 0 17 21" fill="none" xmlns="http://www.w3.org/2000/svg">
<path d="M5.625 10.125C5.625 10.8709 5.32868 11.5863 4.80124 12.1137C4.27379 12.6412 3.55842 12.9375 2.8125 12.9375C2.06658 12.9375 1.35121 12.6412 0.823762 12.1137C0.296316 11.5863 0 10.8709 0 10.125C0 9.37908 0.296316 8.66371 0.823762 8.13626C1.35121 7.60882 2.06658 7.3125 2.8125 7.3125C3.55842 7.3125 4.27379 7.60882 4.80124 8.13626C5.32868 8.66371 5.625 9.37908 5.625 10.125Z" stroke="#5A5959" stroke-width="1.5"/>
<path d="M11.25 3.9375L5.625 7.875M11.25 16.3125L5.625 12.375" stroke="#5A5959" stroke-width="1.5" stroke-linecap="round"/>
<path d="M16.875 17.4375C16.875 18.1834 16.5787 18.8988 16.0512 19.4262C15.5238 19.9537 14.8084 20.25 14.0625 20.25C13.3166 20.25 12.6012 19.9537 12.0738 19.4262C11.5463 18.8988 11.25 18.1834 11.25 17.4375C11.25 16.6916 11.5463 15.9762 12.0738 15.4488C12.6012 14.9213 13.3166 14.625 14.0625 14.625C14.8084 14.625 15.5238 14.9213 16.0512 15.4488C16.5787 15.9762 16.875 16.6916 16.875 17.4375ZM16.875 2.8125C16.875 3.55842 16.5787 4.27379 16.0512 4.80124C15.5238 5.32868 14.8084 5.625 14.0625 5.625C13.3166 5.625 12.6012 5.32868 12.0738 4.80124C11.5463 4.27379 11.25 3.55842 11.25 2.8125C11.25 2.06658 11.5463 1.35121 12.0738 0.823762C12.6012 0.296316 13.3166 0 14.0625 0C14.8084 0 15.5238 0.296316 16.0512 0.823762C16.5787 1.35121 16.875 2.06658 16.875 2.8125Z" stroke="#5A5959" stroke-width="1.5"/>
</svg>
