<svg width="256" height="256" viewBox="0 0 256 256" fill="none" xmlns="http://www.w3.org/2000/svg">
<g clip-path="url(#clip0_333_67)">
<path d="M256 0H0V256H256V0Z" fill="white"/>
<path d="M21.4634 16H16V21.4634H21.4634V16Z" fill="black"/>
<path d="M26.9268 16H21.4634V21.4634H26.9268V16Z" fill="black"/>
<path d="M32.3902 16H26.9268V21.4634H32.3902V16Z" fill="black"/>
<path d="M37.8537 16H32.3902V21.4634H37.8537V16Z" fill="black"/>
<path d="M43.3171 16H37.8537V21.4634H43.3171V16Z" fill="black"/>
<path d="M48.7805 16H43.3171V21.4634H48.7805V16Z" fill="black"/>
<path d="M54.2439 16H48.7805V21.4634H54.2439V16Z" fill="black"/>
<path d="M70.6341 16H65.1707V21.4634H70.6341V16Z" fill="black"/>
<path d="M76.0976 16H70.6341V21.4634H76.0976V16Z" fill="black"/>
<path d="M81.561 16H76.0976V21.4634H81.561V16Z" fill="black"/>
<path d="M108.878 16H103.415V21.4634H108.878V16Z" fill="black"/>
<path d="M136.195 16H130.732V21.4634H136.195V16Z" fill="black"/>
<path d="M141.659 16H136.195V21.4634H141.659V16Z" fill="black"/>
<path d="M163.512 16H158.049V21.4634H163.512V16Z" fill="black"/>
<path d="M174.439 16H168.976V21.4634H174.439V16Z" fill="black"/>
<path d="M185.366 16H179.902V21.4634H185.366V16Z" fill="black"/>
<path d="M196.293 16H190.829V21.4634H196.293V16Z" fill="black"/>
<path d="M207.22 16H201.756V21.4634H207.22V16Z" fill="black"/>
<path d="M212.683 16H207.22V21.4634H212.683V16Z" fill="black"/>
<path d="M218.146 16H212.683V21.4634H218.146V16Z" fill="black"/>
<path d="M223.61 16H218.146V21.4634H223.61V16Z" fill="black"/>
<path d="M229.073 16H223.61V21.4634H229.073V16Z" fill="black"/>
<path d="M234.537 16H229.073V21.4634H234.537V16Z" fill="black"/>
<path d="M240 16H234.537V21.4634H240V16Z" fill="black"/>
<path d="M21.4634 21.4634H16V26.9268H21.4634V21.4634Z" fill="black"/>
<path d="M54.2439 21.4634H48.7805V26.9268H54.2439V21.4634Z" fill="black"/>
<path d="M65.1707 21.4634H59.7073V26.9268H65.1707V21.4634Z" fill="black"/>
<path d="M81.561 21.4634H76.0976V26.9268H81.561V21.4634Z" fill="black"/>
<path d="M87.0244 21.4634H81.561V26.9268H87.0244V21.4634Z" fill="black"/>
<path d="M92.4878 21.4634H87.0244V26.9268H92.4878V21.4634Z" fill="black"/>
<path d="M108.878 21.4634H103.415V26.9268H108.878V21.4634Z" fill="black"/>
<path d="M114.341 21.4634H108.878V26.9268H114.341V21.4634Z" fill="black"/>
<path d="M130.732 21.4634H125.268V26.9268H130.732V21.4634Z" fill="black"/>
<path d="M136.195 21.4634H130.732V26.9268H136.195V21.4634Z" fill="black"/>
<path d="M147.122 21.4634H141.659V26.9268H147.122V21.4634Z" fill="black"/>
<path d="M152.585 21.4634H147.122V26.9268H152.585V21.4634Z" fill="black"/>
<path d="M168.976 21.4634H163.512V26.9268H168.976V21.4634Z" fill="black"/>
<path d="M185.366 21.4634H179.902V26.9268H185.366V21.4634Z" fill="black"/>
<path d="M196.293 21.4634H190.829V26.9268H196.293V21.4634Z" fill="black"/>
<path d="M207.22 21.4634H201.756V26.9268H207.22V21.4634Z" fill="black"/>
<path d="M240 21.4634H234.537V26.9268H240V21.4634Z" fill="black"/>
<path d="M21.4634 26.9268H16V32.3902H21.4634V26.9268Z" fill="black"/>
<path d="M32.3902 26.9268H26.9268V32.3902H32.3902V26.9268Z" fill="black"/>
<path d="M37.8537 26.9268H32.3902V32.3902H37.8537V26.9268Z" fill="black"/>
<path d="M43.3171 26.9268H37.8537V32.3902H43.3171V26.9268Z" fill="black"/>
<path d="M54.2439 26.9268H48.7805V32.3902H54.2439V26.9268Z" fill="black"/>
<path d="M65.1707 26.9268H59.7073V32.3902H65.1707V26.9268Z" fill="black"/>
<path d="M76.0976 26.9268H70.6341V32.3902H76.0976V26.9268Z" fill="black"/>
<path d="M87.0244 26.9268H81.561V32.3902H87.0244V26.9268Z" fill="black"/>
<path d="M103.415 26.9268H97.9512V32.3902H103.415V26.9268Z" fill="black"/>
<path d="M125.268 26.9268H119.805V32.3902H125.268V26.9268Z" fill="black"/>
<path d="M130.732 26.9268H125.268V32.3902H130.732V26.9268Z" fill="black"/>
<path d="M141.659 26.9268H136.195V32.3902H141.659V26.9268Z" fill="black"/>
<path d="M152.585 26.9268H147.122V32.3902H152.585V26.9268Z" fill="black"/>
<path d="M174.439 26.9268H168.976V32.3902H174.439V26.9268Z" fill="black"/>
<path d="M179.902 26.9268H174.439V32.3902H179.902V26.9268Z" fill="black"/>
<path d="M207.22 26.9268H201.756V32.3902H207.22V26.9268Z" fill="black"/>
<path d="M218.146 26.9268H212.683V32.3902H218.146V26.9268Z" fill="black"/>
<path d="M223.61 26.9268H218.146V32.3902H223.61V26.9268Z" fill="black"/>
<path d="M229.073 26.9268H223.61V32.3902H229.073V26.9268Z" fill="black"/>
<path d="M240 26.9268H234.537V32.3902H240V26.9268Z" fill="black"/>
<path d="M21.4634 32.3902H16V37.8537H21.4634V32.3902Z" fill="black"/>
<path d="M32.3902 32.3902H26.9268V37.8537H32.3902V32.3902Z" fill="black"/>
<path d="M37.8537 32.3902H32.3902V37.8537H37.8537V32.3902Z" fill="black"/>
<path d="M43.3171 32.3902H37.8537V37.8537H43.3171V32.3902Z" fill="black"/>
<path d="M54.2439 32.3902H48.7805V37.8537H54.2439V32.3902Z" fill="black"/>
<path d="M70.6341 32.3902H65.1707V37.8537H70.6341V32.3902Z" fill="black"/>
<path d="M81.561 32.3902H76.0976V37.8537H81.561V32.3902Z" fill="black"/>
<path d="M87.0244 32.3902H81.561V37.8537H87.0244V32.3902Z" fill="black"/>
<path d="M103.415 32.3902H97.9512V37.8537H103.415V32.3902Z" fill="black"/>
<path d="M108.878 32.3902H103.415V37.8537H108.878V32.3902Z" fill="black"/>
<path d="M114.341 32.3902H108.878V37.8537H114.341V32.3902Z" fill="black"/>
<path d="M119.805 32.3902H114.341V37.8537H119.805V32.3902Z" fill="black"/>
<path d="M136.195 32.3902H130.732V37.8537H136.195V32.3902Z" fill="black"/>
<path d="M141.659 32.3902H136.195V37.8537H141.659V32.3902Z" fill="black"/>
<path d="M152.585 32.3902H147.122V37.8537H152.585V32.3902Z" fill="black"/>
<path d="M158.049 32.3902H152.585V37.8537H158.049V32.3902Z" fill="black"/>
<path d="M168.976 32.3902H163.512V37.8537H168.976V32.3902Z" fill="black"/>
<path d="M179.902 32.3902H174.439V37.8537H179.902V32.3902Z" fill="black"/>
<path d="M190.829 32.3902H185.366V37.8537H190.829V32.3902Z" fill="black"/>
<path d="M207.22 32.3902H201.756V37.8537H207.22V32.3902Z" fill="black"/>
<path d="M218.146 32.3902H212.683V37.8537H218.146V32.3902Z" fill="black"/>
<path d="M223.61 32.3902H218.146V37.8537H223.61V32.3902Z" fill="black"/>
<path d="M229.073 32.3902H223.61V37.8537H229.073V32.3902Z" fill="black"/>
<path d="M240 32.3902H234.537V37.8537H240V32.3902Z" fill="black"/>
<path d="M21.4634 37.8537H16V43.3171H21.4634V37.8537Z" fill="black"/>
<path d="M32.3902 37.8537H26.9268V43.3171H32.3902V37.8537Z" fill="black"/>
<path d="M37.8537 37.8537H32.3902V43.3171H37.8537V37.8537Z" fill="black"/>
<path d="M43.3171 37.8537H37.8537V43.3171H43.3171V37.8537Z" fill="black"/>
<path d="M54.2439 37.8537H48.7805V43.3171H54.2439V37.8537Z" fill="black"/>
<path d="M76.0976 37.8537H70.6341V43.3171H76.0976V37.8537Z" fill="black"/>
<path d="M81.561 37.8537H76.0976V43.3171H81.561V37.8537Z" fill="black"/>
<path d="M92.4878 37.8537L87.0244 37.8537V43.3171H92.4878V37.8537Z" fill="black"/>
<path d="M103.415 37.8537H97.9512V43.3171H103.415V37.8537Z" fill="black"/>
<path d="M108.878 37.8537H103.415V43.3171H108.878V37.8537Z" fill="black"/>
<path d="M125.268 37.8537L119.805 37.8537V43.3171H125.268V37.8537Z" fill="black"/>
<path d="M130.732 37.8537L125.268 37.8537V43.3171H130.732V37.8537Z" fill="black"/>
<path d="M136.195 37.8537H130.732V43.3171H136.195V37.8537Z" fill="black"/>
<path d="M152.585 37.8537H147.122V43.3171H152.585V37.8537Z" fill="black"/>
<path d="M158.049 37.8537H152.585V43.3171H158.049V37.8537Z" fill="black"/>
<path d="M163.512 37.8537H158.049V43.3171H163.512V37.8537Z" fill="black"/>
<path d="M174.439 37.8537H168.976V43.3171H174.439V37.8537Z" fill="black"/>
<path d="M179.902 37.8537H174.439V43.3171H179.902V37.8537Z" fill="black"/>
<path d="M207.22 37.8537H201.756V43.3171H207.22V37.8537Z" fill="black"/>
<path d="M218.146 37.8537H212.683V43.3171H218.146V37.8537Z" fill="black"/>
<path d="M223.61 37.8537H218.146V43.3171H223.61V37.8537Z" fill="black"/>
<path d="M229.073 37.8537H223.61V43.3171H229.073V37.8537Z" fill="black"/>
<path d="M240 37.8537H234.537V43.3171H240V37.8537Z" fill="black"/>
<path d="M21.4634 43.3171H16V48.7805H21.4634V43.3171Z" fill="black"/>
<path d="M54.2439 43.3171H48.7805V48.7805H54.2439V43.3171Z" fill="black"/>
<path d="M76.0976 43.3171H70.6341V48.7805H76.0976V43.3171Z" fill="black"/>
<path d="M81.561 43.3171H76.0976V48.7805H81.561V43.3171Z" fill="black"/>
<path d="M87.0244 43.3171H81.561V48.7805H87.0244V43.3171Z" fill="black"/>
<path d="M97.9512 43.3171H92.4878V48.7805H97.9512V43.3171Z" fill="black"/>
<path d="M103.415 43.3171H97.9512V48.7805H103.415V43.3171Z" fill="black"/>
<path d="M108.878 43.3171H103.415V48.7805H108.878V43.3171Z" fill="black"/>
<path d="M114.341 43.3171H108.878V48.7805H114.341V43.3171Z" fill="black"/>
<path d="M119.805 43.3171H114.341V48.7805H119.805V43.3171Z" fill="black"/>
<path d="M130.732 43.3171H125.268V48.7805H130.732V43.3171Z" fill="black"/>
<path d="M136.195 43.3171H130.732V48.7805H136.195V43.3171Z" fill="black"/>
<path d="M179.902 43.3171H174.439V48.7805H179.902V43.3171Z" fill="black"/>
<path d="M190.829 43.3171H185.366V48.7805H190.829V43.3171Z" fill="black"/>
<path d="M196.293 43.3171H190.829V48.7805H196.293V43.3171Z" fill="black"/>
<path d="M207.22 43.3171H201.756V48.7805H207.22V43.3171Z" fill="black"/>
<path d="M240 43.3171H234.537V48.7805H240V43.3171Z" fill="black"/>
<path d="M21.4634 48.7805H16V54.2439H21.4634V48.7805Z" fill="black"/>
<path d="M26.9268 48.7805H21.4634V54.2439H26.9268V48.7805Z" fill="black"/>
<path d="M32.3902 48.7805H26.9268V54.2439H32.3902V48.7805Z" fill="black"/>
<path d="M37.8537 48.7805H32.3902V54.2439H37.8537V48.7805Z" fill="black"/>
<path d="M43.3171 48.7805H37.8537V54.2439H43.3171V48.7805Z" fill="black"/>
<path d="M48.7805 48.7805H43.3171V54.2439H48.7805V48.7805Z" fill="black"/>
<path d="M54.2439 48.7805H48.7805V54.2439H54.2439V48.7805Z" fill="black"/>
<path d="M65.1707 48.7805H59.7073V54.2439H65.1707V48.7805Z" fill="black"/>
<path d="M76.0976 48.7805H70.6341V54.2439H76.0976V48.7805Z" fill="black"/>
<path d="M87.0244 48.7805H81.561V54.2439H87.0244V48.7805Z" fill="black"/>
<path d="M97.9512 48.7805H92.4878V54.2439H97.9512V48.7805Z" fill="black"/>
<path d="M108.878 48.7805H103.415V54.2439H108.878V48.7805Z" fill="black"/>
<path d="M119.805 48.7805H114.341V54.2439H119.805V48.7805Z" fill="black"/>
<path d="M130.732 48.7805H125.268V54.2439H130.732V48.7805Z" fill="black"/>
<path d="M141.659 48.7805H136.195V54.2439H141.659V48.7805Z" fill="black"/>
<path d="M152.585 48.7805H147.122V54.2439H152.585V48.7805Z" fill="black"/>
<path d="M163.512 48.7805H158.049V54.2439H163.512V48.7805Z" fill="black"/>
<path d="M174.439 48.7805H168.976V54.2439H174.439V48.7805Z" fill="black"/>
<path d="M185.366 48.7805H179.902V54.2439H185.366V48.7805Z" fill="black"/>
<path d="M196.293 48.7805H190.829V54.2439H196.293V48.7805Z" fill="black"/>
<path d="M207.22 48.7805H201.756V54.2439H207.22V48.7805Z" fill="black"/>
<path d="M212.683 48.7805H207.22V54.2439H212.683V48.7805Z" fill="black"/>
<path d="M218.146 48.7805H212.683V54.2439H218.146V48.7805Z" fill="black"/>
<path d="M223.61 48.7805H218.146V54.2439H223.61V48.7805Z" fill="black"/>
<path d="M229.073 48.7805H223.61V54.2439H229.073V48.7805Z" fill="black"/>
<path d="M234.537 48.7805H229.073V54.2439H234.537V48.7805Z" fill="black"/>
<path d="M240 48.7805H234.537V54.2439H240V48.7805Z" fill="black"/>
<path d="M81.561 54.2439H76.0976V59.7073H81.561V54.2439Z" fill="black"/>
<path d="M92.4878 54.2439H87.0244V59.7073H92.4878V54.2439Z" fill="black"/>
<path d="M97.9512 54.2439H92.4878V59.7073H97.9512V54.2439Z" fill="black"/>
<path d="M114.341 54.2439H108.878V59.7073H114.341V54.2439Z" fill="black"/>
<path d="M125.268 54.2439H119.805V59.7073H125.268V54.2439Z" fill="black"/>
<path d="M141.659 54.2439H136.195V59.7073H141.659V54.2439Z" fill="black"/>
<path d="M147.122 54.2439H141.659V59.7073H147.122V54.2439Z" fill="black"/>
<path d="M168.976 54.2439H163.512V59.7073H168.976V54.2439Z" fill="black"/>
<path d="M174.439 54.2439H168.976V59.7073H174.439V54.2439Z" fill="black"/>
<path d="M185.366 54.2439H179.902V59.7073H185.366V54.2439Z" fill="black"/>
<path d="M196.293 54.2439H190.829V59.7073H196.293V54.2439Z" fill="black"/>
<path d="M37.8537 59.7073H32.3902V65.1707H37.8537V59.7073Z" fill="black"/>
<path d="M48.7805 59.7073H43.3171V65.1707H48.7805V59.7073Z" fill="black"/>
<path d="M54.2439 59.7073H48.7805V65.1707H54.2439V59.7073Z" fill="black"/>
<path d="M59.7073 59.7073H54.2439V65.1707H59.7073V59.7073Z" fill="black"/>
<path d="M76.0976 59.7073H70.6341V65.1707H76.0976V59.7073Z" fill="black"/>
<path d="M87.0244 59.7073H81.561V65.1707H87.0244V59.7073Z" fill="black"/>
<path d="M103.415 59.7073H97.9512V65.1707H103.415V59.7073Z" fill="black"/>
<path d="M114.341 59.7073H108.878V65.1707H114.341V59.7073Z" fill="black"/>
<path d="M119.805 59.7073H114.341V65.1707H119.805V59.7073Z" fill="black"/>
<path d="M125.268 59.7073H119.805V65.1707H125.268V59.7073Z" fill="black"/>
<path d="M136.195 59.7073H130.732V65.1707H136.195V59.7073Z" fill="black"/>
<path d="M141.659 59.7073H136.195V65.1707H141.659V59.7073Z" fill="black"/>
<path d="M147.122 59.7073H141.659V65.1707H147.122V59.7073Z" fill="black"/>
<path d="M152.585 59.7073H147.122V65.1707H152.585V59.7073Z" fill="black"/>
<path d="M174.439 59.7073H168.976V65.1707H174.439V59.7073Z" fill="black"/>
<path d="M179.902 59.7073H174.439V65.1707H179.902V59.7073Z" fill="black"/>
<path d="M185.366 59.7073H179.902V65.1707H185.366V59.7073Z" fill="black"/>
<path d="M196.293 59.7073H190.829V65.1707H196.293V59.7073Z" fill="black"/>
<path d="M201.756 59.7073H196.293V65.1707H201.756V59.7073Z" fill="black"/>
<path d="M229.073 59.7073H223.61V65.1707H229.073V59.7073Z" fill="black"/>
<path d="M234.537 59.7073H229.073V65.1707H234.537V59.7073Z" fill="black"/>
<path d="M21.4634 65.1707H16V70.6341H21.4634V65.1707Z" fill="black"/>
<path d="M32.3902 65.1707H26.9268V70.6341H32.3902V65.1707Z" fill="black"/>
<path d="M37.8537 65.1707H32.3902V70.6341H37.8537V65.1707Z" fill="black"/>
<path d="M43.3171 65.1707H37.8537V70.6341H43.3171V65.1707Z" fill="black"/>
<path d="M48.7805 65.1707H43.3171V70.6341H48.7805V65.1707Z" fill="black"/>
<path d="M59.7073 65.1707H54.2439V70.6341H59.7073V65.1707Z" fill="black"/>
<path d="M70.6341 65.1707H65.1707V70.6341H70.6341V65.1707Z" fill="black"/>
<path d="M76.0976 65.1707H70.6341V70.6341H76.0976V65.1707Z" fill="black"/>
<path d="M92.4878 65.1707H87.0244V70.6341H92.4878V65.1707Z" fill="black"/>
<path d="M97.9512 65.1707H92.4878V70.6341H97.9512V65.1707Z" fill="black"/>
<path d="M103.415 65.1707H97.9512V70.6341H103.415V65.1707Z" fill="black"/>
<path d="M108.878 65.1707H103.415V70.6341H108.878V65.1707Z" fill="black"/>
<path d="M119.805 65.1707H114.341V70.6341H119.805V65.1707Z" fill="black"/>
<path d="M136.195 65.1707H130.732V70.6341H136.195V65.1707Z" fill="black"/>
<path d="M141.659 65.1707H136.195V70.6341H141.659V65.1707Z" fill="black"/>
<path d="M158.049 65.1707H152.585V70.6341H158.049V65.1707Z" fill="black"/>
<path d="M163.512 65.1707H158.049V70.6341H163.512V65.1707Z" fill="black"/>
<path d="M168.976 65.1707H163.512V70.6341H168.976V65.1707Z" fill="black"/>
<path d="M179.902 65.1707H174.439V70.6341H179.902V65.1707Z" fill="black"/>
<path d="M190.829 65.1707H185.366V70.6341H190.829V65.1707Z" fill="black"/>
<path d="M196.293 65.1707H190.829V70.6341H196.293V65.1707Z" fill="black"/>
<path d="M201.756 65.1707H196.293V70.6341H201.756V65.1707Z" fill="black"/>
<path d="M218.146 65.1707H212.683V70.6341H218.146V65.1707Z" fill="black"/>
<path d="M223.61 65.1707H218.146V70.6341H223.61V65.1707Z" fill="black"/>
<path d="M229.073 65.1707H223.61V70.6341H229.073V65.1707Z" fill="black"/>
<path d="M234.537 65.1707H229.073V70.6341H234.537V65.1707Z" fill="black"/>
<path d="M240 65.1707H234.537V70.6341H240V65.1707Z" fill="black"/>
<path d="M21.4634 70.6341H16V76.0976H21.4634V70.6341Z" fill="black"/>
<path d="M32.3902 70.6341H26.9268V76.0976H32.3902V70.6341Z" fill="black"/>
<path d="M43.3171 70.6341H37.8537L37.8537 76.0976H43.3171V70.6341Z" fill="black"/>
<path d="M54.2439 70.6341H48.7805V76.0976H54.2439V70.6341Z" fill="black"/>
<path d="M59.7073 70.6341H54.2439V76.0976H59.7073V70.6341Z" fill="black"/>
<path d="M70.6341 70.6341H65.1707V76.0976H70.6341V70.6341Z" fill="black"/>
<path d="M97.9512 70.6341H92.4878V76.0976H97.9512V70.6341Z" fill="black"/>
<path d="M108.878 70.6341H103.415V76.0976H108.878V70.6341Z" fill="black"/>
<path d="M114.341 70.6341H108.878V76.0976H114.341V70.6341Z" fill="black"/>
<path d="M125.268 70.6341H119.805V76.0976H125.268V70.6341Z" fill="black"/>
<path d="M141.659 70.6341H136.195V76.0976H141.659V70.6341Z" fill="black"/>
<path d="M147.122 70.6341H141.659V76.0976H147.122V70.6341Z" fill="black"/>
<path d="M158.049 70.6341H152.585V76.0976H158.049V70.6341Z" fill="black"/>
<path d="M185.366 70.6341H179.902V76.0976H185.366V70.6341Z" fill="black"/>
<path d="M190.829 70.6341H185.366V76.0976H190.829V70.6341Z" fill="black"/>
<path d="M201.756 70.6341H196.293V76.0976H201.756V70.6341Z" fill="black"/>
<path d="M218.146 70.6341H212.683V76.0976H218.146V70.6341Z" fill="black"/>
<path d="M223.61 70.6341H218.146V76.0976H223.61V70.6341Z" fill="black"/>
<path d="M234.537 70.6341H229.073V76.0976H234.537V70.6341Z" fill="black"/>
<path d="M21.4634 76.0976H16V81.561H21.4634V76.0976Z" fill="black"/>
<path d="M26.9268 76.0976H21.4634V81.561H26.9268V76.0976Z" fill="black"/>
<path d="M32.3902 76.0976H26.9268V81.561H32.3902V76.0976Z" fill="black"/>
<path d="M37.8537 76.0976H32.3902V81.561H37.8537L37.8537 76.0976Z" fill="black"/>
<path d="M59.7073 76.0976H54.2439V81.561H59.7073V76.0976Z" fill="black"/>
<path d="M76.0976 76.0976H70.6341V81.561H76.0976V76.0976Z" fill="black"/>
<path d="M87.0244 76.0976H81.561V81.561H87.0244V76.0976Z" fill="black"/>
<path d="M92.4878 76.0976H87.0244V81.561H92.4878V76.0976Z" fill="black"/>
<path d="M97.9512 76.0976H92.4878V81.561H97.9512V76.0976Z" fill="black"/>
<path d="M103.415 76.0976H97.9512V81.561H103.415V76.0976Z" fill="black"/>
<path d="M125.268 76.0976H119.805V81.561H125.268V76.0976Z" fill="black"/>
<path d="M136.195 76.0976H130.732V81.561H136.195V76.0976Z" fill="black"/>
<path d="M141.659 76.0976H136.195V81.561H141.659V76.0976Z" fill="black"/>
<path d="M147.122 76.0976H141.659V81.561H147.122V76.0976Z" fill="black"/>
<path d="M168.976 76.0976H163.512V81.561H168.976V76.0976Z" fill="black"/>
<path d="M179.902 76.0976H174.439V81.561H179.902V76.0976Z" fill="black"/>
<path d="M185.366 76.0976H179.902V81.561H185.366V76.0976Z" fill="black"/>
<path d="M201.756 76.0976H196.293V81.561H201.756V76.0976Z" fill="black"/>
<path d="M207.22 76.0976H201.756V81.561H207.22V76.0976Z" fill="black"/>
<path d="M218.146 76.0976H212.683V81.561H218.146V76.0976Z" fill="black"/>
<path d="M223.61 76.0976H218.146V81.561H223.61V76.0976Z" fill="black"/>
<path d="M229.073 76.0976H223.61V81.561H229.073V76.0976Z" fill="black"/>
<path d="M32.3902 81.561H26.9268V87.0244H32.3902V81.561Z" fill="black"/>
<path d="M37.8537 81.561H32.3902V87.0244H37.8537V81.561Z" fill="black"/>
<path d="M54.2439 81.561H48.7805V87.0244H54.2439V81.561Z" fill="black"/>
<path d="M59.7073 81.561H54.2439V87.0244H59.7073V81.561Z" fill="black"/>
<path d="M70.6341 81.561H65.1707V87.0244H70.6341V81.561Z" fill="black"/>
<path d="M103.415 81.561H97.9512V87.0244H103.415V81.561Z" fill="black"/>
<path d="M108.878 81.561H103.415V87.0244H108.878V81.561Z" fill="black"/>
<path d="M114.341 81.561H108.878V87.0244H114.341V81.561Z" fill="black"/>
<path d="M119.805 81.561H114.341V87.0244H119.805V81.561Z" fill="black"/>
<path d="M125.268 81.561H119.805V87.0244H125.268V81.561Z" fill="black"/>
<path d="M152.585 81.561H147.122V87.0244H152.585V81.561Z" fill="black"/>
<path d="M163.512 81.561H158.049V87.0244H163.512V81.561Z" fill="black"/>
<path d="M168.976 81.561H163.512V87.0244H168.976V81.561Z" fill="black"/>
<path d="M174.439 81.561H168.976V87.0244H174.439V81.561Z" fill="black"/>
<path d="M179.902 81.561H174.439V87.0244H179.902V81.561Z" fill="black"/>
<path d="M185.366 81.561H179.902V87.0244H185.366V81.561Z" fill="black"/>
<path d="M190.829 81.561H185.366V87.0244H190.829V81.561Z" fill="black"/>
<path d="M196.293 81.561H190.829V87.0244H196.293V81.561Z" fill="black"/>
<path d="M218.146 81.561H212.683V87.0244H218.146V81.561Z" fill="black"/>
<path d="M229.073 81.561H223.61V87.0244H229.073V81.561Z" fill="black"/>
<path d="M234.537 81.561H229.073V87.0244H234.537V81.561Z" fill="black"/>
<path d="M32.3902 87.0244H26.9268V92.4878H32.3902V87.0244Z" fill="black"/>
<path d="M43.3171 87.0244H37.8537L37.8537 92.4878H43.3171V87.0244Z" fill="black"/>
<path d="M59.7073 87.0244H54.2439V92.4878H59.7073V87.0244Z" fill="black"/>
<path d="M70.6341 87.0244H65.1707V92.4878H70.6341V87.0244Z" fill="black"/>
<path d="M76.0976 87.0244H70.6341V92.4878H76.0976V87.0244Z" fill="black"/>
<path d="M87.0244 87.0244H81.561V92.4878H87.0244V87.0244Z" fill="black"/>
<path d="M97.9512 87.0244H92.4878V92.4878H97.9512V87.0244Z" fill="black"/>
<path d="M108.878 87.0244H103.415V92.4878H108.878V87.0244Z" fill="black"/>
<path d="M125.268 87.0244H119.805V92.4878H125.268V87.0244Z" fill="black"/>
<path d="M141.659 87.0244H136.195V92.4878H141.659V87.0244Z" fill="black"/>
<path d="M158.049 87.0244H152.585V92.4878H158.049V87.0244Z" fill="black"/>
<path d="M163.512 87.0244H158.049V92.4878H163.512V87.0244Z" fill="black"/>
<path d="M168.976 87.0244H163.512V92.4878H168.976V87.0244Z" fill="black"/>
<path d="M179.902 87.0244H174.439V92.4878H179.902V87.0244Z" fill="black"/>
<path d="M207.22 87.0244H201.756V92.4878H207.22V87.0244Z" fill="black"/>
<path d="M218.146 87.0244H212.683V92.4878H218.146V87.0244Z" fill="black"/>
<path d="M229.073 87.0244H223.61V92.4878H229.073V87.0244Z" fill="black"/>
<path d="M234.537 87.0244H229.073V92.4878H234.537V87.0244Z" fill="black"/>
<path d="M240 87.0244H234.537V92.4878H240V87.0244Z" fill="black"/>
<path d="M21.4634 92.4878H16V97.9512H21.4634V92.4878Z" fill="black"/>
<path d="M32.3902 92.4878H26.9268V97.9512H32.3902V92.4878Z" fill="black"/>
<path d="M54.2439 92.4878H48.7805V97.9512H54.2439V92.4878Z" fill="black"/>
<path d="M76.0976 92.4878H70.6341V97.9512H76.0976V92.4878Z" fill="black"/>
<path d="M81.561 92.4878H76.0976V97.9512H81.561V92.4878Z" fill="black"/>
<path d="M87.0244 92.4878H81.561V97.9512H87.0244V92.4878Z" fill="black"/>
<path d="M97.9512 92.4878H92.4878V97.9512H97.9512V92.4878Z" fill="black"/>
<path d="M103.415 92.4878H97.9512V97.9512H103.415V92.4878Z" fill="black"/>
<path d="M136.195 92.4878H130.732V97.9512H136.195V92.4878Z" fill="black"/>
<path d="M147.122 92.4878H141.659V97.9512H147.122V92.4878Z" fill="black"/>
<path d="M152.585 92.4878H147.122V97.9512H152.585V92.4878Z" fill="black"/>
<path d="M158.049 92.4878H152.585V97.9512H158.049V92.4878Z" fill="black"/>
<path d="M163.512 92.4878H158.049V97.9512H163.512V92.4878Z" fill="black"/>
<path d="M201.756 92.4878H196.293V97.9512H201.756V92.4878Z" fill="black"/>
<path d="M229.073 92.4878H223.61V97.9512H229.073V92.4878Z" fill="black"/>
<path d="M37.8537 97.9512H32.3902V103.415H37.8537V97.9512Z" fill="black"/>
<path d="M43.3171 97.9512H37.8537V103.415H43.3171V97.9512Z" fill="black"/>
<path d="M48.7805 97.9512H43.3171V103.415H48.7805V97.9512Z" fill="black"/>
<path d="M76.0976 97.9512H70.6341V103.415H76.0976V97.9512Z" fill="black"/>
<path d="M87.0244 97.9512H81.561V103.415H87.0244V97.9512Z" fill="black"/>
<path d="M114.341 97.9512H108.878V103.415H114.341V97.9512Z" fill="black"/>
<path d="M152.585 97.9512H147.122V103.415H152.585V97.9512Z" fill="black"/>
<path d="M163.512 97.9512H158.049V103.415H163.512V97.9512Z" fill="black"/>
<path d="M174.439 97.9512H168.976V103.415H174.439V97.9512Z" fill="black"/>
<path d="M179.902 97.9512H174.439V103.415H179.902V97.9512Z" fill="black"/>
<path d="M190.829 97.9512H185.366V103.415H190.829V97.9512Z" fill="black"/>
<path d="M196.293 97.9512H190.829V103.415H196.293V97.9512Z" fill="black"/>
<path d="M207.22 97.9512H201.756V103.415H207.22V97.9512Z" fill="black"/>
<path d="M212.683 97.9512H207.22V103.415H212.683V97.9512Z" fill="black"/>
<path d="M240 97.9512H234.537V103.415H240V97.9512Z" fill="black"/>
<path d="M21.4634 103.415H16V108.878H21.4634V103.415Z" fill="black"/>
<path d="M26.9268 103.415H21.4634V108.878H26.9268V103.415Z" fill="black"/>
<path d="M32.3902 103.415H26.9268V108.878H32.3902V103.415Z" fill="black"/>
<path d="M54.2439 103.415H48.7805V108.878H54.2439V103.415Z" fill="black"/>
<path d="M59.7073 103.415H54.2439V108.878H59.7073V103.415Z" fill="black"/>
<path d="M65.1707 103.415H59.7073V108.878H65.1707V103.415Z" fill="black"/>
<path d="M70.6341 103.415H65.1707V108.878H70.6341V103.415Z" fill="black"/>
<path d="M76.0976 103.415H70.6341V108.878H76.0976V103.415Z" fill="black"/>
<path d="M81.561 103.415H76.0976V108.878H81.561V103.415Z" fill="black"/>
<path d="M103.415 103.415H97.9512V108.878H103.415V103.415Z" fill="black"/>
<path d="M108.878 103.415H103.415V108.878H108.878V103.415Z" fill="black"/>
<path d="M125.268 103.415H119.805V108.878H125.268V103.415Z" fill="black"/>
<path d="M136.195 103.415H130.732V108.878H136.195V103.415Z" fill="black"/>
<path d="M158.049 103.415H152.585V108.878H158.049V103.415Z" fill="black"/>
<path d="M163.512 103.415H158.049V108.878H163.512V103.415Z" fill="black"/>
<path d="M174.439 103.415H168.976V108.878H174.439V103.415Z" fill="black"/>
<path d="M190.829 103.415H185.366V108.878H190.829V103.415Z" fill="black"/>
<path d="M212.683 103.415H207.22V108.878H212.683V103.415Z" fill="black"/>
<path d="M218.146 103.415H212.683V108.878H218.146V103.415Z" fill="black"/>
<path d="M229.073 103.415H223.61V108.878H229.073V103.415Z" fill="black"/>
<path d="M240 103.415H234.537V108.878H240V103.415Z" fill="black"/>
<path d="M37.8537 108.878H32.3902V114.341H37.8537V108.878Z" fill="black"/>
<path d="M43.3171 108.878H37.8537V114.341H43.3171V108.878Z" fill="black"/>
<path d="M48.7805 108.878H43.3171V114.341H48.7805V108.878Z" fill="black"/>
<path d="M59.7073 108.878H54.2439V114.341H59.7073V108.878Z" fill="black"/>
<path d="M65.1707 108.878H59.7073V114.341H65.1707V108.878Z" fill="black"/>
<path d="M70.6341 108.878H65.1707V114.341H70.6341V108.878Z" fill="black"/>
<path d="M92.4878 108.878H87.0244V114.341H92.4878V108.878Z" fill="black"/>
<path d="M108.878 108.878H103.415V114.341H108.878V108.878Z" fill="black"/>
<path d="M125.268 108.878H119.805V114.341H125.268V108.878Z" fill="black"/>
<path d="M130.732 108.878H125.268V114.341H130.732V108.878Z" fill="black"/>
<path d="M136.195 108.878H130.732V114.341H136.195V108.878Z" fill="black"/>
<path d="M147.122 108.878H141.659V114.341H147.122V108.878Z" fill="black"/>
<path d="M152.585 108.878H147.122V114.341H152.585V108.878Z" fill="black"/>
<path d="M168.976 108.878H163.512V114.341H168.976V108.878Z" fill="black"/>
<path d="M174.439 108.878H168.976V114.341H174.439V108.878Z" fill="black"/>
<path d="M196.293 108.878H190.829V114.341H196.293V108.878Z" fill="black"/>
<path d="M212.683 108.878H207.22V114.341H212.683V108.878Z" fill="black"/>
<path d="M229.073 108.878H223.61V114.341H229.073V108.878Z" fill="black"/>
<path d="M240 108.878H234.537V114.341H240V108.878Z" fill="black"/>
<path d="M43.3171 114.341H37.8537L37.8537 119.805H43.3171V114.341Z" fill="black"/>
<path d="M54.2439 114.341H48.7805V119.805H54.2439V114.341Z" fill="black"/>
<path d="M59.7073 114.341H54.2439V119.805H59.7073V114.341Z" fill="black"/>
<path d="M65.1707 114.341H59.7073V119.805H65.1707V114.341Z" fill="black"/>
<path d="M70.6341 114.341H65.1707V119.805H70.6341V114.341Z" fill="black"/>
<path d="M81.561 114.341H76.0976V119.805H81.561V114.341Z" fill="black"/>
<path d="M92.4878 114.341H87.0244V119.805H92.4878V114.341Z" fill="black"/>
<path d="M103.415 114.341H97.9512V119.805H103.415V114.341Z" fill="black"/>
<path d="M108.878 114.341H103.415V119.805H108.878V114.341Z" fill="black"/>
<path d="M114.341 114.341H108.878V119.805H114.341V114.341Z" fill="black"/>
<path d="M130.732 114.341H125.268V119.805H130.732V114.341Z" fill="black"/>
<path d="M141.659 114.341H136.195V119.805H141.659V114.341Z" fill="black"/>
<path d="M152.585 114.341H147.122V119.805H152.585V114.341Z" fill="black"/>
<path d="M174.439 114.341H168.976V119.805H174.439V114.341Z" fill="black"/>
<path d="M185.366 114.341H179.902V119.805H185.366V114.341Z" fill="black"/>
<path d="M196.293 114.341H190.829V119.805H196.293V114.341Z" fill="black"/>
<path d="M201.756 114.341H196.293V119.805H201.756V114.341Z" fill="black"/>
<path d="M207.22 114.341H201.756V119.805H207.22V114.341Z" fill="black"/>
<path d="M212.683 114.341H207.22V119.805H212.683V114.341Z" fill="black"/>
<path d="M218.146 114.341H212.683V119.805H218.146V114.341Z" fill="black"/>
<path d="M223.61 114.341H218.146V119.805H223.61V114.341Z" fill="black"/>
<path d="M229.073 114.341H223.61V119.805H229.073V114.341Z" fill="black"/>
<path d="M240 114.341H234.537V119.805H240V114.341Z" fill="black"/>
<path d="M26.9268 119.805H21.4634V125.268H26.9268V119.805Z" fill="black"/>
<path d="M43.3171 119.805H37.8537V125.268H43.3171V119.805Z" fill="black"/>
<path d="M59.7073 119.805H54.2439V125.268H59.7073V119.805Z" fill="black"/>
<path d="M70.6341 119.805H65.1707V125.268H70.6341V119.805Z" fill="black"/>
<path d="M76.0976 119.805H70.6341V125.268H76.0976V119.805Z" fill="black"/>
<path d="M81.561 119.805H76.0976V125.268H81.561V119.805Z" fill="black"/>
<path d="M87.0244 119.805H81.561V125.268H87.0244V119.805Z" fill="black"/>
<path d="M92.4878 119.805H87.0244V125.268H92.4878V119.805Z" fill="black"/>
<path d="M103.415 119.805H97.9512V125.268H103.415V119.805Z" fill="black"/>
<path d="M108.878 119.805H103.415V125.268H108.878V119.805Z" fill="black"/>
<path d="M114.341 119.805H108.878V125.268H114.341V119.805Z" fill="black"/>
<path d="M130.732 119.805H125.268V125.268H130.732V119.805Z" fill="black"/>
<path d="M152.585 119.805H147.122V125.268H152.585V119.805Z" fill="black"/>
<path d="M158.049 119.805H152.585V125.268H158.049V119.805Z" fill="black"/>
<path d="M174.439 119.805H168.976V125.268H174.439V119.805Z" fill="black"/>
<path d="M185.366 119.805H179.902V125.268H185.366V119.805Z" fill="black"/>
<path d="M196.293 119.805H190.829V125.268H196.293V119.805Z" fill="black"/>
<path d="M218.146 119.805H212.683V125.268H218.146V119.805Z" fill="black"/>
<path d="M229.073 119.805H223.61V125.268H229.073V119.805Z" fill="black"/>
<path d="M234.537 119.805H229.073V125.268H234.537V119.805Z" fill="black"/>
<path d="M21.4634 125.268H16V130.732H21.4634V125.268Z" fill="black"/>
<path d="M26.9268 125.268H21.4634V130.732H26.9268V125.268Z" fill="black"/>
<path d="M32.3902 125.268H26.9268V130.732H32.3902V125.268Z" fill="black"/>
<path d="M37.8537 125.268H32.3902V130.732H37.8537L37.8537 125.268Z" fill="black"/>
<path d="M48.7805 125.268H43.3171V130.732H48.7805V125.268Z" fill="black"/>
<path d="M54.2439 125.268H48.7805V130.732H54.2439V125.268Z" fill="black"/>
<path d="M59.7073 125.268H54.2439V130.732H59.7073V125.268Z" fill="black"/>
<path d="M65.1707 125.268H59.7073V130.732H65.1707V125.268Z" fill="black"/>
<path d="M70.6341 125.268H65.1707V130.732H70.6341V125.268Z" fill="black"/>
<path d="M76.0976 125.268H70.6341V130.732H76.0976V125.268Z" fill="black"/>
<path d="M81.561 125.268H76.0976V130.732H81.561V125.268Z" fill="black"/>
<path d="M87.0244 125.268H81.561V130.732H87.0244V125.268Z" fill="black"/>
<path d="M92.4878 125.268H87.0244V130.732H92.4878V125.268Z" fill="black"/>
<path d="M103.415 125.268H97.9512V130.732H103.415V125.268Z" fill="black"/>
<path d="M108.878 125.268H103.415V130.732H108.878V125.268Z" fill="black"/>
<path d="M114.341 125.268H108.878V130.732H114.341V125.268Z" fill="black"/>
<path d="M119.805 125.268H114.341V130.732H119.805V125.268Z" fill="black"/>
<path d="M136.195 125.268H130.732V130.732H136.195V125.268Z" fill="black"/>
<path d="M147.122 125.268H141.659V130.732H147.122V125.268Z" fill="black"/>
<path d="M158.049 125.268H152.585V130.732H158.049V125.268Z" fill="black"/>
<path d="M174.439 125.268H168.976V130.732H174.439V125.268Z" fill="black"/>
<path d="M185.366 125.268H179.902V130.732H185.366V125.268Z" fill="black"/>
<path d="M196.293 125.268H190.829V130.732H196.293V125.268Z" fill="black"/>
<path d="M207.22 125.268H201.756V130.732H207.22V125.268Z" fill="black"/>
<path d="M212.683 125.268H207.22V130.732H212.683V125.268Z" fill="black"/>
<path d="M234.537 125.268H229.073V130.732H234.537V125.268Z" fill="black"/>
<path d="M240 125.268H234.537V130.732H240V125.268Z" fill="black"/>
<path d="M32.3902 130.732H26.9268V136.195H32.3902V130.732Z" fill="black"/>
<path d="M48.7805 130.732H43.3171V136.195H48.7805V130.732Z" fill="black"/>
<path d="M59.7073 130.732H54.2439V136.195H59.7073V130.732Z" fill="black"/>
<path d="M65.1707 130.732H59.7073V136.195H65.1707V130.732Z" fill="black"/>
<path d="M70.6341 130.732H65.1707V136.195H70.6341V130.732Z" fill="black"/>
<path d="M81.561 130.732H76.0976V136.195H81.561V130.732Z" fill="black"/>
<path d="M92.4878 130.732H87.0244V136.195H92.4878V130.732Z" fill="black"/>
<path d="M97.9512 130.732H92.4878V136.195H97.9512V130.732Z" fill="black"/>
<path d="M103.415 130.732H97.9512V136.195H103.415V130.732Z" fill="black"/>
<path d="M119.805 130.732H114.341V136.195H119.805V130.732Z" fill="black"/>
<path d="M125.268 130.732H119.805V136.195H125.268V130.732Z" fill="black"/>
<path d="M141.659 130.732H136.195V136.195H141.659V130.732Z" fill="black"/>
<path d="M174.439 130.732H168.976V136.195H174.439V130.732Z" fill="black"/>
<path d="M179.902 130.732H174.439V136.195H179.902V130.732Z" fill="black"/>
<path d="M196.293 130.732H190.829V136.195H196.293V130.732Z" fill="black"/>
<path d="M207.22 130.732H201.756V136.195H207.22V130.732Z" fill="black"/>
<path d="M229.073 130.732H223.61V136.195H229.073V130.732Z" fill="black"/>
<path d="M240 130.732H234.537V136.195H240V130.732Z" fill="black"/>
<path d="M26.9268 136.195H21.4634V141.659H26.9268V136.195Z" fill="black"/>
<path d="M37.8537 136.195H32.3902V141.659H37.8537V136.195Z" fill="black"/>
<path d="M43.3171 136.195H37.8537V141.659H43.3171V136.195Z" fill="black"/>
<path d="M54.2439 136.195H48.7805V141.659H54.2439V136.195Z" fill="black"/>
<path d="M59.7073 136.195H54.2439V141.659H59.7073V136.195Z" fill="black"/>
<path d="M81.561 136.195H76.0976V141.659H81.561V136.195Z" fill="black"/>
<path d="M92.4878 136.195H87.0244V141.659H92.4878V136.195Z" fill="black"/>
<path d="M103.415 136.195H97.9512V141.659H103.415V136.195Z" fill="black"/>
<path d="M141.659 136.195H136.195V141.659H141.659V136.195Z" fill="black"/>
<path d="M152.585 136.195H147.122V141.659H152.585V136.195Z" fill="black"/>
<path d="M158.049 136.195H152.585V141.659H158.049V136.195Z" fill="black"/>
<path d="M163.512 136.195H158.049V141.659H163.512V136.195Z" fill="black"/>
<path d="M168.976 136.195H163.512V141.659H168.976V136.195Z" fill="black"/>
<path d="M174.439 136.195H168.976V141.659H174.439V136.195Z" fill="black"/>
<path d="M185.366 136.195H179.902V141.659H185.366V136.195Z" fill="black"/>
<path d="M190.829 136.195H185.366V141.659H190.829V136.195Z" fill="black"/>
<path d="M196.293 136.195H190.829V141.659H196.293V136.195Z" fill="black"/>
<path d="M212.683 136.195H207.22V141.659H212.683V136.195Z" fill="black"/>
<path d="M229.073 136.195H223.61V141.659H229.073V136.195Z" fill="black"/>
<path d="M37.8537 141.659H32.3902V147.122H37.8537V141.659Z" fill="black"/>
<path d="M43.3171 141.659H37.8537V147.122H43.3171V141.659Z" fill="black"/>
<path d="M48.7805 141.659H43.3171V147.122H48.7805V141.659Z" fill="black"/>
<path d="M70.6341 141.659H65.1707V147.122H70.6341V141.659Z" fill="black"/>
<path d="M76.0976 141.659H70.6341V147.122H76.0976V141.659Z" fill="black"/>
<path d="M103.415 141.659H97.9512V147.122H103.415V141.659Z" fill="black"/>
<path d="M114.341 141.659H108.878V147.122H114.341V141.659Z" fill="black"/>
<path d="M119.805 141.659H114.341V147.122H119.805V141.659Z" fill="black"/>
<path d="M125.268 141.659H119.805V147.122H125.268V141.659Z" fill="black"/>
<path d="M130.732 141.659H125.268V147.122H130.732V141.659Z" fill="black"/>
<path d="M136.195 141.659H130.732V147.122H136.195V141.659Z" fill="black"/>
<path d="M141.659 141.659H136.195V147.122H141.659V141.659Z" fill="black"/>
<path d="M152.585 141.659H147.122V147.122H152.585V141.659Z" fill="black"/>
<path d="M158.049 141.659H152.585V147.122H158.049V141.659Z" fill="black"/>
<path d="M163.512 141.659H158.049V147.122H163.512V141.659Z" fill="black"/>
<path d="M168.976 141.659H163.512V147.122H168.976V141.659Z" fill="black"/>
<path d="M185.366 141.659H179.902V147.122H185.366V141.659Z" fill="black"/>
<path d="M196.293 141.659H190.829V147.122H196.293V141.659Z" fill="black"/>
<path d="M201.756 141.659H196.293V147.122H201.756V141.659Z" fill="black"/>
<path d="M207.22 141.659H201.756V147.122H207.22V141.659Z" fill="black"/>
<path d="M212.683 141.659H207.22V147.122H212.683V141.659Z" fill="black"/>
<path d="M218.146 141.659H212.683V147.122H218.146V141.659Z" fill="black"/>
<path d="M223.61 141.659H218.146V147.122H223.61V141.659Z" fill="black"/>
<path d="M229.073 141.659H223.61V147.122H229.073V141.659Z" fill="black"/>
<path d="M234.537 141.659H229.073V147.122H234.537V141.659Z" fill="black"/>
<path d="M26.9268 147.122H21.4634V152.585H26.9268V147.122Z" fill="black"/>
<path d="M32.3902 147.122H26.9268V152.585H32.3902V147.122Z" fill="black"/>
<path d="M37.8537 147.122H32.3902V152.585H37.8537V147.122Z" fill="black"/>
<path d="M48.7805 147.122H43.3171V152.585H48.7805V147.122Z" fill="black"/>
<path d="M54.2439 147.122H48.7805V152.585H54.2439V147.122Z" fill="black"/>
<path d="M81.561 147.122H76.0976V152.585H81.561V147.122Z" fill="black"/>
<path d="M87.0244 147.122H81.561V152.585H87.0244V147.122Z" fill="black"/>
<path d="M92.4878 147.122H87.0244V152.585H92.4878V147.122Z" fill="black"/>
<path d="M97.9512 147.122H92.4878V152.585H97.9512V147.122Z" fill="black"/>
<path d="M103.415 147.122H97.9512V152.585H103.415V147.122Z" fill="black"/>
<path d="M119.805 147.122H114.341V152.585H119.805V147.122Z" fill="black"/>
<path d="M130.732 147.122H125.268V152.585H130.732V147.122Z" fill="black"/>
<path d="M136.195 147.122H130.732V152.585H136.195V147.122Z" fill="black"/>
<path d="M152.585 147.122H147.122V152.585H152.585V147.122Z" fill="black"/>
<path d="M158.049 147.122H152.585V152.585H158.049V147.122Z" fill="black"/>
<path d="M163.512 147.122H158.049V152.585H163.512V147.122Z" fill="black"/>
<path d="M168.976 147.122H163.512V152.585H168.976V147.122Z" fill="black"/>
<path d="M234.537 147.122H229.073V152.585H234.537V147.122Z" fill="black"/>
<path d="M240 147.122H234.537V152.585H240V147.122Z" fill="black"/>
<path d="M21.4634 152.585H16V158.049H21.4634V152.585Z" fill="black"/>
<path d="M32.3902 152.585H26.9268V158.049H32.3902V152.585Z" fill="black"/>
<path d="M37.8537 152.585H32.3902V158.049H37.8537V152.585Z" fill="black"/>
<path d="M97.9512 152.585H92.4878V158.049H97.9512V152.585Z" fill="black"/>
<path d="M130.732 152.585H125.268V158.049H130.732V152.585Z" fill="black"/>
<path d="M136.195 152.585H130.732V158.049H136.195V152.585Z" fill="black"/>
<path d="M141.659 152.585H136.195V158.049H141.659V152.585Z" fill="black"/>
<path d="M185.366 152.585H179.902V158.049H185.366V152.585Z" fill="black"/>
<path d="M201.756 152.585H196.293V158.049H201.756V152.585Z" fill="black"/>
<path d="M212.683 152.585H207.22V158.049H212.683V152.585Z" fill="black"/>
<path d="M218.146 152.585H212.683V158.049H218.146V152.585Z" fill="black"/>
<path d="M32.3902 158.049H26.9268V163.512H32.3902V158.049Z" fill="black"/>
<path d="M37.8537 158.049H32.3902V163.512H37.8537V158.049Z" fill="black"/>
<path d="M43.3171 158.049H37.8537V163.512H43.3171V158.049Z" fill="black"/>
<path d="M54.2439 158.049H48.7805V163.512H54.2439V158.049Z" fill="black"/>
<path d="M59.7073 158.049H54.2439V163.512H59.7073V158.049Z" fill="black"/>
<path d="M76.0976 158.049H70.6341V163.512H76.0976V158.049Z" fill="black"/>
<path d="M81.561 158.049H76.0976V163.512H81.561V158.049Z" fill="black"/>
<path d="M87.0244 158.049H81.561V163.512H87.0244V158.049Z" fill="black"/>
<path d="M92.4878 158.049H87.0244V163.512H92.4878V158.049Z" fill="black"/>
<path d="M97.9512 158.049H92.4878V163.512H97.9512V158.049Z" fill="black"/>
<path d="M108.878 158.049H103.415V163.512H108.878V158.049Z" fill="black"/>
<path d="M114.341 158.049H108.878V163.512H114.341V158.049Z" fill="black"/>
<path d="M125.268 158.049H119.805V163.512H125.268V158.049Z" fill="black"/>
<path d="M130.732 158.049H125.268V163.512H130.732V158.049Z" fill="black"/>
<path d="M147.122 158.049H141.659V163.512H147.122V158.049Z" fill="black"/>
<path d="M163.512 158.049H158.049V163.512H163.512V158.049Z" fill="black"/>
<path d="M174.439 158.049H168.976V163.512H174.439V158.049Z" fill="black"/>
<path d="M185.366 158.049H179.902V163.512H185.366V158.049Z" fill="black"/>
<path d="M234.537 158.049H229.073V163.512H234.537V158.049Z" fill="black"/>
<path d="M240 158.049H234.537V163.512H240V158.049Z" fill="black"/>
<path d="M32.3902 163.512H26.9268V168.976H32.3902V163.512Z" fill="black"/>
<path d="M59.7073 163.512H54.2439V168.976H59.7073V163.512Z" fill="black"/>
<path d="M70.6341 163.512H65.1707V168.976H70.6341V163.512Z" fill="black"/>
<path d="M76.0976 163.512H70.6341V168.976H76.0976V163.512Z" fill="black"/>
<path d="M81.561 163.512H76.0976V168.976H81.561V163.512Z" fill="black"/>
<path d="M92.4878 163.512H87.0244V168.976H92.4878V163.512Z" fill="black"/>
<path d="M97.9512 163.512H92.4878V168.976H97.9512V163.512Z" fill="black"/>
<path d="M103.415 163.512H97.9512V168.976H103.415V163.512Z" fill="black"/>
<path d="M114.341 163.512H108.878V168.976H114.341V163.512Z" fill="black"/>
<path d="M119.805 163.512H114.341V168.976H119.805V163.512Z" fill="black"/>
<path d="M136.195 163.512H130.732V168.976H136.195V163.512Z" fill="black"/>
<path d="M141.659 163.512H136.195V168.976H141.659V163.512Z" fill="black"/>
<path d="M152.585 163.512H147.122V168.976H152.585V163.512Z" fill="black"/>
<path d="M158.049 163.512H152.585V168.976H158.049V163.512Z" fill="black"/>
<path d="M163.512 163.512H158.049V168.976H163.512V163.512Z" fill="black"/>
<path d="M179.902 163.512H174.439V168.976H179.902V163.512Z" fill="black"/>
<path d="M185.366 163.512H179.902V168.976H185.366V163.512Z" fill="black"/>
<path d="M190.829 163.512H185.366V168.976H190.829V163.512Z" fill="black"/>
<path d="M201.756 163.512H196.293V168.976H201.756V163.512Z" fill="black"/>
<path d="M207.22 163.512H201.756V168.976H207.22V163.512Z" fill="black"/>
<path d="M212.683 163.512H207.22V168.976H212.683V163.512Z" fill="black"/>
<path d="M218.146 163.512H212.683V168.976H218.146V163.512Z" fill="black"/>
<path d="M223.61 163.512H218.146V168.976H223.61V163.512Z" fill="black"/>
<path d="M229.073 163.512H223.61V168.976H229.073V163.512Z" fill="black"/>
<path d="M234.537 163.512H229.073V168.976H234.537V163.512Z" fill="black"/>
<path d="M240 163.512H234.537V168.976H240V163.512Z" fill="black"/>
<path d="M21.4634 168.976H16V174.439H21.4634V168.976Z" fill="black"/>
<path d="M26.9268 168.976H21.4634V174.439H26.9268V168.976Z" fill="black"/>
<path d="M37.8537 168.976H32.3902V174.439H37.8537V168.976Z" fill="black"/>
<path d="M43.3171 168.976H37.8537V174.439H43.3171V168.976Z" fill="black"/>
<path d="M48.7805 168.976H43.3171V174.439H48.7805V168.976Z" fill="black"/>
<path d="M54.2439 168.976H48.7805V174.439H54.2439V168.976Z" fill="black"/>
<path d="M59.7073 168.976H54.2439V174.439H59.7073V168.976Z" fill="black"/>
<path d="M65.1707 168.976H59.7073V174.439H65.1707V168.976Z" fill="black"/>
<path d="M70.6341 168.976H65.1707V174.439H70.6341V168.976Z" fill="black"/>
<path d="M76.0976 168.976H70.6341V174.439H76.0976V168.976Z" fill="black"/>
<path d="M81.561 168.976H76.0976V174.439H81.561V168.976Z" fill="black"/>
<path d="M92.4878 168.976H87.0244V174.439H92.4878V168.976Z" fill="black"/>
<path d="M97.9512 168.976H92.4878V174.439H97.9512V168.976Z" fill="black"/>
<path d="M108.878 168.976H103.415V174.439H108.878V168.976Z" fill="black"/>
<path d="M114.341 168.976H108.878V174.439H114.341V168.976Z" fill="black"/>
<path d="M119.805 168.976H114.341V174.439H119.805V168.976Z" fill="black"/>
<path d="M130.732 168.976H125.268V174.439H130.732V168.976Z" fill="black"/>
<path d="M147.122 168.976H141.659V174.439H147.122V168.976Z" fill="black"/>
<path d="M152.585 168.976H147.122V174.439H152.585V168.976Z" fill="black"/>
<path d="M158.049 168.976H152.585V174.439H158.049V168.976Z" fill="black"/>
<path d="M174.439 168.976H168.976V174.439H174.439V168.976Z" fill="black"/>
<path d="M179.902 168.976H174.439V174.439H179.902V168.976Z" fill="black"/>
<path d="M185.366 168.976H179.902V174.439H185.366V168.976Z" fill="black"/>
<path d="M190.829 168.976H185.366V174.439H190.829V168.976Z" fill="black"/>
<path d="M218.146 168.976H212.683V174.439H218.146V168.976Z" fill="black"/>
<path d="M223.61 168.976H218.146V174.439H223.61V168.976Z" fill="black"/>
<path d="M240 168.976H234.537V174.439H240V168.976Z" fill="black"/>
<path d="M21.4634 174.439H16V179.902H21.4634V174.439Z" fill="black"/>
<path d="M26.9268 174.439H21.4634V179.902H26.9268V174.439Z" fill="black"/>
<path d="M32.3902 174.439H26.9268V179.902H32.3902V174.439Z" fill="black"/>
<path d="M37.8537 174.439H32.3902V179.902H37.8537V174.439Z" fill="black"/>
<path d="M76.0976 174.439H70.6341V179.902H76.0976V174.439Z" fill="black"/>
<path d="M119.805 174.439H114.341V179.902H119.805V174.439Z" fill="black"/>
<path d="M136.195 174.439H130.732V179.902H136.195V174.439Z" fill="black"/>
<path d="M158.049 174.439H152.585V179.902H158.049V174.439Z" fill="black"/>
<path d="M229.073 174.439H223.61V179.902H229.073V174.439Z" fill="black"/>
<path d="M21.4634 179.902H16V185.366H21.4634V179.902Z" fill="black"/>
<path d="M26.9268 179.902H21.4634V185.366H26.9268V179.902Z" fill="black"/>
<path d="M37.8537 179.902H32.3902V185.366H37.8537V179.902Z" fill="black"/>
<path d="M43.3171 179.902H37.8537V185.366H43.3171V179.902Z" fill="black"/>
<path d="M54.2439 179.902H48.7805V185.366H54.2439V179.902Z" fill="black"/>
<path d="M59.7073 179.902H54.2439V185.366H59.7073V179.902Z" fill="black"/>
<path d="M65.1707 179.902H59.7073V185.366H65.1707V179.902Z" fill="black"/>
<path d="M87.0244 179.902H81.561V185.366H87.0244V179.902Z" fill="black"/>
<path d="M108.878 179.902H103.415V185.366H108.878V179.902Z" fill="black"/>
<path d="M114.341 179.902H108.878V185.366H114.341V179.902Z" fill="black"/>
<path d="M158.049 179.902H152.585V185.366H158.049V179.902Z" fill="black"/>
<path d="M168.976 179.902H163.512V185.366H168.976V179.902Z" fill="black"/>
<path d="M190.829 179.902H185.366V185.366H190.829V179.902Z" fill="black"/>
<path d="M196.293 179.902H190.829V185.366H196.293V179.902Z" fill="black"/>
<path d="M201.756 179.902H196.293V185.366H201.756V179.902Z" fill="black"/>
<path d="M207.22 179.902H201.756V185.366H207.22V179.902Z" fill="black"/>
<path d="M212.683 179.902H207.22V185.366H212.683V179.902Z" fill="black"/>
<path d="M218.146 179.902H212.683V185.366H218.146V179.902Z" fill="black"/>
<path d="M229.073 179.902H223.61V185.366H229.073V179.902Z" fill="black"/>
<path d="M65.1707 185.366H59.7073V190.829H65.1707V185.366Z" fill="black"/>
<path d="M70.6341 185.366H65.1707V190.829H70.6341V185.366Z" fill="black"/>
<path d="M76.0976 185.366H70.6341V190.829H76.0976V185.366Z" fill="black"/>
<path d="M81.561 185.366H76.0976V190.829H81.561V185.366Z" fill="black"/>
<path d="M92.4878 185.366H87.0244V190.829H92.4878V185.366Z" fill="black"/>
<path d="M97.9512 185.366H92.4878V190.829H97.9512V185.366Z" fill="black"/>
<path d="M108.878 185.366H103.415V190.829H108.878V185.366Z" fill="black"/>
<path d="M114.341 185.366H108.878V190.829H114.341V185.366Z" fill="black"/>
<path d="M119.805 185.366H114.341V190.829H119.805V185.366Z" fill="black"/>
<path d="M125.268 185.366H119.805V190.829H125.268V185.366Z" fill="black"/>
<path d="M130.732 185.366H125.268V190.829H130.732V185.366Z" fill="black"/>
<path d="M136.195 185.366H130.732V190.829H136.195V185.366Z" fill="black"/>
<path d="M141.659 185.366H136.195V190.829H141.659V185.366Z" fill="black"/>
<path d="M147.122 185.366H141.659V190.829H147.122V185.366Z" fill="black"/>
<path d="M158.049 185.366H152.585V190.829H158.049V185.366Z" fill="black"/>
<path d="M163.512 185.366H158.049V190.829H163.512V185.366Z" fill="black"/>
<path d="M168.976 185.366H163.512V190.829H168.976V185.366Z" fill="black"/>
<path d="M179.902 185.366H174.439V190.829H179.902V185.366Z" fill="black"/>
<path d="M185.366 185.366H179.902V190.829H185.366V185.366Z" fill="black"/>
<path d="M190.829 185.366H185.366V190.829H190.829V185.366Z" fill="black"/>
<path d="M196.293 185.366H190.829V190.829H196.293V185.366Z" fill="black"/>
<path d="M212.683 185.366H207.22V190.829H212.683V185.366Z" fill="black"/>
<path d="M218.146 185.366H212.683V190.829H218.146V185.366Z" fill="black"/>
<path d="M229.073 185.366H223.61V190.829H229.073V185.366Z" fill="black"/>
<path d="M240 185.366H234.537V190.829H240V185.366Z" fill="black"/>
<path d="M32.3902 190.829H26.9268V196.293H32.3902V190.829Z" fill="black"/>
<path d="M48.7805 190.829H43.3171V196.293H48.7805V190.829Z" fill="black"/>
<path d="M54.2439 190.829H48.7805V196.293H54.2439V190.829Z" fill="black"/>
<path d="M65.1707 190.829H59.7073V196.293H65.1707V190.829Z" fill="black"/>
<path d="M70.6341 190.829H65.1707V196.293H70.6341V190.829Z" fill="black"/>
<path d="M81.561 190.829H76.0976V196.293H81.561V190.829Z" fill="black"/>
<path d="M97.9512 190.829H92.4878V196.293H97.9512V190.829Z" fill="black"/>
<path d="M103.415 190.829H97.9512V196.293H103.415V190.829Z" fill="black"/>
<path d="M119.805 190.829H114.341V196.293H119.805V190.829Z" fill="black"/>
<path d="M125.268 190.829H119.805V196.293H125.268V190.829Z" fill="black"/>
<path d="M147.122 190.829H141.659V196.293H147.122V190.829Z" fill="black"/>
<path d="M152.585 190.829H147.122V196.293H152.585V190.829Z" fill="black"/>
<path d="M168.976 190.829H163.512V196.293H168.976V190.829Z" fill="black"/>
<path d="M185.366 190.829H179.902V196.293H185.366V190.829Z" fill="black"/>
<path d="M196.293 190.829H190.829V196.293H196.293V190.829Z" fill="black"/>
<path d="M201.756 190.829H196.293V196.293H201.756V190.829Z" fill="black"/>
<path d="M207.22 190.829H201.756V196.293H207.22V190.829Z" fill="black"/>
<path d="M212.683 190.829H207.22V196.293H212.683V190.829Z" fill="black"/>
<path d="M218.146 190.829H212.683V196.293H218.146V190.829Z" fill="black"/>
<path d="M223.61 190.829H218.146V196.293H223.61V190.829Z" fill="black"/>
<path d="M229.073 190.829H223.61V196.293H229.073V190.829Z" fill="black"/>
<path d="M234.537 190.829H229.073V196.293H234.537V190.829Z" fill="black"/>
<path d="M240 190.829H234.537V196.293H240V190.829Z" fill="black"/>
<path d="M70.6341 196.293H65.1707V201.756H70.6341V196.293Z" fill="black"/>
<path d="M76.0976 196.293H70.6341V201.756H76.0976V196.293Z" fill="black"/>
<path d="M81.561 196.293H76.0976V201.756H81.561V196.293Z" fill="black"/>
<path d="M87.0244 196.293H81.561V201.756H87.0244V196.293Z" fill="black"/>
<path d="M92.4878 196.293H87.0244V201.756H92.4878V196.293Z" fill="black"/>
<path d="M97.9512 196.293H92.4878V201.756H97.9512V196.293Z" fill="black"/>
<path d="M103.415 196.293H97.9512V201.756H103.415V196.293Z" fill="black"/>
<path d="M108.878 196.293H103.415V201.756H108.878V196.293Z" fill="black"/>
<path d="M114.341 196.293H108.878V201.756H114.341V196.293Z" fill="black"/>
<path d="M136.195 196.293H130.732V201.756H136.195V196.293Z" fill="black"/>
<path d="M141.659 196.293H136.195V201.756H141.659V196.293Z" fill="black"/>
<path d="M185.366 196.293H179.902V201.756H185.366V196.293Z" fill="black"/>
<path d="M196.293 196.293H190.829V201.756H196.293V196.293Z" fill="black"/>
<path d="M218.146 196.293H212.683V201.756H218.146V196.293Z" fill="black"/>
<path d="M229.073 196.293H223.61V201.756H229.073V196.293Z" fill="black"/>
<path d="M240 196.293H234.537V201.756H240V196.293Z" fill="black"/>
<path d="M21.4634 201.756H16V207.22H21.4634V201.756Z" fill="black"/>
<path d="M26.9268 201.756H21.4634V207.22H26.9268V201.756Z" fill="black"/>
<path d="M32.3902 201.756H26.9268V207.22H32.3902V201.756Z" fill="black"/>
<path d="M37.8537 201.756H32.3902V207.22H37.8537V201.756Z" fill="black"/>
<path d="M43.3171 201.756H37.8537V207.22H43.3171V201.756Z" fill="black"/>
<path d="M48.7805 201.756H43.3171V207.22H48.7805V201.756Z" fill="black"/>
<path d="M54.2439 201.756H48.7805V207.22H54.2439V201.756Z" fill="black"/>
<path d="M65.1707 201.756H59.7073V207.22H65.1707V201.756Z" fill="black"/>
<path d="M70.6341 201.756H65.1707V207.22H70.6341V201.756Z" fill="black"/>
<path d="M76.0976 201.756H70.6341V207.22H76.0976V201.756Z" fill="black"/>
<path d="M81.561 201.756H76.0976V207.22H81.561V201.756Z" fill="black"/>
<path d="M87.0244 201.756H81.561V207.22H87.0244V201.756Z" fill="black"/>
<path d="M92.4878 201.756H87.0244V207.22H92.4878V201.756Z" fill="black"/>
<path d="M97.9512 201.756H92.4878V207.22H97.9512V201.756Z" fill="black"/>
<path d="M103.415 201.756H97.9512V207.22H103.415V201.756Z" fill="black"/>
<path d="M108.878 201.756H103.415V207.22H108.878V201.756Z" fill="black"/>
<path d="M114.341 201.756H108.878V207.22H114.341V201.756Z" fill="black"/>
<path d="M119.805 201.756H114.341V207.22H119.805V201.756Z" fill="black"/>
<path d="M125.268 201.756H119.805V207.22H125.268V201.756Z" fill="black"/>
<path d="M130.732 201.756H125.268V207.22H130.732V201.756Z" fill="black"/>
<path d="M136.195 201.756H130.732V207.22H136.195V201.756Z" fill="black"/>
<path d="M141.659 201.756H136.195V207.22H141.659V201.756Z" fill="black"/>
<path d="M152.585 201.756H147.122V207.22H152.585V201.756Z" fill="black"/>
<path d="M158.049 201.756H152.585V207.22H158.049V201.756Z" fill="black"/>
<path d="M163.512 201.756H158.049V207.22H163.512V201.756Z" fill="black"/>
<path d="M168.976 201.756H163.512V207.22H168.976V201.756Z" fill="black"/>
<path d="M174.439 201.756H168.976V207.22H174.439V201.756Z" fill="black"/>
<path d="M179.902 201.756H174.439V207.22H179.902V201.756Z" fill="black"/>
<path d="M190.829 201.756H185.366V207.22H190.829V201.756Z" fill="black"/>
<path d="M196.293 201.756H190.829V207.22H196.293V201.756Z" fill="black"/>
<path d="M207.22 201.756H201.756V207.22H207.22V201.756Z" fill="black"/>
<path d="M218.146 201.756H212.683V207.22H218.146V201.756Z" fill="black"/>
<path d="M234.537 201.756H229.073V207.22H234.537V201.756Z" fill="black"/>
<path d="M240 201.756H234.537V207.22H240V201.756Z" fill="black"/>
<path d="M21.4634 207.22H16V212.683H21.4634V207.22Z" fill="black"/>
<path d="M54.2439 207.22H48.7805V212.683H54.2439V207.22Z" fill="black"/>
<path d="M65.1707 207.22H59.7073V212.683H65.1707V207.22Z" fill="black"/>
<path d="M76.0976 207.22H70.6341V212.683H76.0976V207.22Z" fill="black"/>
<path d="M81.561 207.22H76.0976V212.683H81.561V207.22Z" fill="black"/>
<path d="M114.341 207.22H108.878V212.683H114.341V207.22Z" fill="black"/>
<path d="M119.805 207.22H114.341V212.683H119.805V207.22Z" fill="black"/>
<path d="M141.659 207.22H136.195V212.683H141.659V207.22Z" fill="black"/>
<path d="M147.122 207.22H141.659V212.683H147.122V207.22Z" fill="black"/>
<path d="M163.512 207.22H158.049V212.683H163.512V207.22Z" fill="black"/>
<path d="M190.829 207.22H185.366V212.683H190.829V207.22Z" fill="black"/>
<path d="M196.293 207.22H190.829V212.683H196.293V207.22Z" fill="black"/>
<path d="M218.146 207.22H212.683V212.683H218.146V207.22Z" fill="black"/>
<path d="M223.61 207.22H218.146V212.683H223.61V207.22Z" fill="black"/>
<path d="M21.4634 212.683H16V218.146H21.4634V212.683Z" fill="black"/>
<path d="M32.3902 212.683H26.9268V218.146H32.3902V212.683Z" fill="black"/>
<path d="M37.8537 212.683H32.3902V218.146H37.8537V212.683Z" fill="black"/>
<path d="M43.3171 212.683H37.8537V218.146H43.3171V212.683Z" fill="black"/>
<path d="M54.2439 212.683H48.7805V218.146H54.2439V212.683Z" fill="black"/>
<path d="M76.0976 212.683H70.6341V218.146H76.0976V212.683Z" fill="black"/>
<path d="M119.805 212.683H114.341V218.146H119.805V212.683Z" fill="black"/>
<path d="M141.659 212.683H136.195V218.146H141.659V212.683Z" fill="black"/>
<path d="M196.293 212.683H190.829V218.146H196.293V212.683Z" fill="black"/>
<path d="M201.756 212.683H196.293V218.146H201.756V212.683Z" fill="black"/>
<path d="M207.22 212.683H201.756V218.146H207.22V212.683Z" fill="black"/>
<path d="M212.683 212.683H207.22V218.146H212.683V212.683Z" fill="black"/>
<path d="M218.146 212.683H212.683V218.146H218.146V212.683Z" fill="black"/>
<path d="M223.61 212.683H218.146V218.146H223.61V212.683Z" fill="black"/>
<path d="M229.073 212.683H223.61V218.146H229.073V212.683Z" fill="black"/>
<path d="M240 212.683H234.537V218.146H240V212.683Z" fill="black"/>
<path d="M21.4634 218.146H16V223.61H21.4634V218.146Z" fill="black"/>
<path d="M32.3902 218.146H26.9268V223.61H32.3902V218.146Z" fill="black"/>
<path d="M37.8537 218.146H32.3902V223.61H37.8537V218.146Z" fill="black"/>
<path d="M43.3171 218.146H37.8537V223.61H43.3171V218.146Z" fill="black"/>
<path d="M54.2439 218.146H48.7805V223.61H54.2439V218.146Z" fill="black"/>
<path d="M65.1707 218.146H59.7073V223.61H65.1707V218.146Z" fill="black"/>
<path d="M76.0976 218.146H70.6341V223.61H76.0976V218.146Z" fill="black"/>
<path d="M81.561 218.146H76.0976V223.61H81.561V218.146Z" fill="black"/>
<path d="M92.4878 218.146H87.0244V223.61H92.4878V218.146Z" fill="black"/>
<path d="M108.878 218.146H103.415V223.61H108.878V218.146Z" fill="black"/>
<path d="M114.341 218.146H108.878V223.61H114.341V218.146Z" fill="black"/>
<path d="M136.195 218.146H130.732V223.61H136.195V218.146Z" fill="black"/>
<path d="M141.659 218.146H136.195V223.61H141.659V218.146Z" fill="black"/>
<path d="M158.049 218.146H152.585V223.61H158.049V218.146Z" fill="black"/>
<path d="M163.512 218.146H158.049V223.61H163.512V218.146Z" fill="black"/>
<path d="M168.976 218.146H163.512V223.61H168.976V218.146Z" fill="black"/>
<path d="M179.902 218.146H174.439V223.61H179.902V218.146Z" fill="black"/>
<path d="M223.61 218.146H218.146V223.61H223.61V218.146Z" fill="black"/>
<path d="M229.073 218.146H223.61V223.61H229.073V218.146Z" fill="black"/>
<path d="M21.4634 223.61H16V229.073H21.4634V223.61Z" fill="black"/>
<path d="M32.3902 223.61H26.9268V229.073H32.3902V223.61Z" fill="black"/>
<path d="M37.8537 223.61H32.3902V229.073H37.8537V223.61Z" fill="black"/>
<path d="M43.3171 223.61H37.8537V229.073H43.3171V223.61Z" fill="black"/>
<path d="M54.2439 223.61H48.7805V229.073H54.2439V223.61Z" fill="black"/>
<path d="M70.6341 223.61H65.1707V229.073H70.6341V223.61Z" fill="black"/>
<path d="M76.0976 223.61H70.6341V229.073H76.0976V223.61Z" fill="black"/>
<path d="M92.4878 223.61H87.0244V229.073H92.4878V223.61Z" fill="black"/>
<path d="M97.9512 223.61H92.4878V229.073H97.9512V223.61Z" fill="black"/>
<path d="M119.805 223.61H114.341V229.073H119.805V223.61Z" fill="black"/>
<path d="M141.659 223.61H136.195V229.073H141.659V223.61Z" fill="black"/>
<path d="M163.512 223.61H158.049V229.073H163.512V223.61Z" fill="black"/>
<path d="M179.902 223.61H174.439V229.073H179.902V223.61Z" fill="black"/>
<path d="M21.4634 229.073H16V234.537H21.4634V229.073Z" fill="black"/>
<path d="M54.2439 229.073H48.7805V234.537H54.2439V229.073Z" fill="black"/>
<path d="M70.6341 229.073H65.1707V234.537H70.6341V229.073Z" fill="black"/>
<path d="M76.0976 229.073H70.6341V234.537H76.0976V229.073Z" fill="black"/>
<path d="M81.561 229.073H76.0976V234.537H81.561V229.073Z" fill="black"/>
<path d="M103.415 229.073H97.9512V234.537H103.415V229.073Z" fill="black"/>
<path d="M108.878 229.073H103.415V234.537H108.878V229.073Z" fill="black"/>
<path d="M125.268 229.073H119.805V234.537H125.268V229.073Z" fill="black"/>
<path d="M147.122 229.073H141.659V234.537H147.122V229.073Z" fill="black"/>
<path d="M158.049 229.073H152.585V234.537H158.049V229.073Z" fill="black"/>
<path d="M163.512 229.073H158.049V234.537H163.512V229.073Z" fill="black"/>
<path d="M212.683 229.073H207.22V234.537H212.683V229.073Z" fill="black"/>
<path d="M218.146 229.073H212.683V234.537H218.146V229.073Z" fill="black"/>
<path d="M21.4634 234.537H16V240H21.4634V234.537Z" fill="black"/>
<path d="M26.9268 234.537H21.4634V240H26.9268V234.537Z" fill="black"/>
<path d="M32.3902 234.537H26.9268V240H32.3902V234.537Z" fill="black"/>
<path d="M37.8537 234.537H32.3902V240H37.8537V234.537Z" fill="black"/>
<path d="M43.3171 234.537H37.8537V240H43.3171V234.537Z" fill="black"/>
<path d="M48.7805 234.537H43.3171V240H48.7805V234.537Z" fill="black"/>
<path d="M54.2439 234.537H48.7805V240H54.2439V234.537Z" fill="black"/>
<path d="M70.6341 234.537H65.1707V240H70.6341V234.537Z" fill="black"/>
<path d="M76.0976 234.537H70.6341V240H76.0976V234.537Z" fill="black"/>
<path d="M87.0244 234.537H81.561V240H87.0244V234.537Z" fill="black"/>
<path d="M92.4878 234.537H87.0244V240H92.4878V234.537Z" fill="black"/>
<path d="M97.9512 234.537H92.4878V240H97.9512V234.537Z" fill="black"/>
<path d="M103.415 234.537H97.9512V240H103.415V234.537Z" fill="black"/>
<path d="M108.878 234.537H103.415V240H108.878V234.537Z" fill="black"/>
<path d="M114.341 234.537H108.878V240H114.341V234.537Z" fill="black"/>
<path d="M119.805 234.537H114.341V240H119.805V234.537Z" fill="black"/>
<path d="M125.268 234.537H119.805V240H125.268V234.537Z" fill="black"/>
<path d="M136.195 234.537H130.732V240H136.195V234.537Z" fill="black"/>
<path d="M141.659 234.537H136.195V240H141.659V234.537Z" fill="black"/>
<path d="M147.122 234.537H141.659V240H147.122V234.537Z" fill="black"/>
<path d="M152.585 234.537H147.122V240H152.585V234.537Z" fill="black"/>
<path d="M158.049 234.537H152.585V240H158.049V234.537Z" fill="black"/>
<path d="M163.512 234.537H158.049V240H163.512V234.537Z" fill="black"/>
<path d="M168.976 234.537H163.512V240H168.976V234.537Z" fill="black"/>
<path d="M174.439 234.537H168.976V240H174.439V234.537Z" fill="black"/>
<path d="M179.902 234.537H174.439V240H179.902V234.537Z" fill="black"/>
<path d="M185.366 234.537H179.902V240H185.366V234.537Z" fill="black"/>
<path d="M196.293 234.537H190.829V240H196.293V234.537Z" fill="black"/>
<path d="M201.756 234.537H196.293V240H201.756V234.537Z" fill="black"/>
<path d="M207.22 234.537H201.756V240H207.22V234.537Z" fill="black"/>
<path d="M212.683 234.537H207.22V240H212.683V234.537Z" fill="black"/>
<path d="M218.146 234.537H212.683V240H218.146V234.537Z" fill="black"/>
<path d="M229.073 234.537H223.61V240H229.073V234.537Z" fill="black"/>
<path d="M240 234.537H234.537V240H240V234.537Z" fill="black"/>
</g>
<defs>
<clipPath id="clip0_333_67">
<rect width="256" height="256" fill="white"/>
</clipPath>
</defs>
</svg>
