<svg width="28" height="26" viewBox="0 0 28 26" fill="none" xmlns="http://www.w3.org/2000/svg">
<path d="M6.37773 14.5301L20.0274 1.2614C20.2243 1.07023 20.4582 0.921319 20.7148 0.823807C20.9713 0.726295 21.2451 0.682239 21.5193 0.694343C21.7935 0.706446 22.0623 0.774453 22.3093 0.894191C22.5562 1.01393 22.7761 1.18287 22.9554 1.39065C23.334 1.83033 23.5318 2.39725 23.5088 2.97702C23.4859 3.5568 23.2439 4.10629 22.8317 4.51465L15.9402 11.3415" stroke="black" stroke-width="2" stroke-linecap="round"/>
<path d="M15.9409 11.3417L23.4429 3.90224C23.8717 3.47705 24.4453 3.22943 25.0488 3.2089C25.6524 3.18838 26.2414 3.39647 26.6982 3.79156C26.9137 3.97777 27.0888 4.2062 27.2126 4.46275C27.3363 4.71929 27.4062 4.99849 27.4178 5.2831C27.4294 5.5677 27.3825 5.85166 27.28 6.11743C27.1775 6.38319 27.0216 6.62511 26.8219 6.82824L19.2642 14.5303" stroke="black" stroke-width="2" stroke-linecap="round" stroke-linejoin="round"/>
<path d="M19.2649 14.5303L23.5652 10.3269C23.9825 9.90114 24.5505 9.65666 25.1466 9.64637C25.7426 9.63608 26.3188 9.8608 26.7504 10.2719C26.9627 10.4743 27.1328 10.7166 27.251 10.985C27.3692 11.2534 27.4331 11.5425 27.4391 11.8358C27.445 12.129 27.3929 12.4204 27.2857 12.6934C27.1784 12.9664 27.0183 13.2154 26.8144 13.4262C20.4687 19.9822 17.1756 23.0787 15.9402 24.1134C13.9402 25.7888 9.99743 26.4832 7.93837 25.1082C5.87931 23.7332 4.01825 21.7766 3.13481 19.8344C2.6091 18.6771 1.58748 15.111 0.0699339 9.13619C-0.00455836 8.84292 -0.0197276 8.53773 0.0253181 8.23853C0.0703639 7.93932 0.174716 7.65212 0.332252 7.39379C0.489788 7.13546 0.697335 6.91119 0.942713 6.73415C1.18809 6.55711 1.46636 6.43086 1.76118 6.36281C2.36757 6.22264 3.00467 6.32287 3.53873 6.64245C4.07278 6.96204 4.46223 7.47612 4.62531 8.07675L6.37775 14.5303M8.6355 4.94106C10.1113 2.73787 12.2043 1.01909 14.6525 0M26.8694 19.4542C25.5109 21.7316 23.5106 23.5575 21.1191 24.7032" stroke="black" stroke-width="2" stroke-linecap="round"/>
</svg>
