<svg width="988" height="142" viewBox="0 0 988 142" fill="none" xmlns="http://www.w3.org/2000/svg">
<path d="M967.219 0C967.249 0.183365 967.3 0.363588 967.375 0.538086C968.034 2.06524 970.224 2.58909 972.267 1.70801C972.803 1.47645 973.275 1.16878 973.669 0.816406C981.953 3.26072 988 10.9235 988 20V24.6621C986.807 23.1311 984.215 22.7051 981.776 23.7568C979.008 24.9506 977.487 27.5959 978.38 29.665C979.272 31.7341 982.24 32.4436 985.008 31.25C986.336 30.6774 987.375 29.7697 988 28.7529V51.2754C985.254 53.9851 984.111 57.5375 985.395 60.5127C985.934 61.7629 986.843 62.7692 988 63.5088V118.781C984.972 118.144 981.408 118.486 977.963 119.972C970.804 123.059 966.872 129.901 969.18 135.252C970.315 137.885 972.752 139.665 975.785 140.428C973.392 141.44 970.762 142 968 142H904.722C909.378 137.76 911.393 131.99 909.325 127.194C906.492 120.626 897.071 118.373 888.284 122.163C879.497 125.953 874.671 134.35 877.504 140.919C877.665 141.294 877.85 141.654 878.053 142H20C8.95431 142 3.70473e-07 133.046 0 122V20C0 8.95431 8.95431 0 20 0H876.373C874.491 1.98797 873.737 4.52001 874.657 6.6543C876.026 9.82905 880.579 10.9186 884.826 9.08691C889.073 7.2552 891.405 3.19618 890.036 0.0214844C890.033 0.014259 890.03 0.00720378 890.026 0H967.219ZM945.06 111.782C942.666 106.233 934.708 104.33 927.285 107.531C919.862 110.733 915.785 117.827 918.178 123.376C920.571 128.925 928.53 130.829 935.953 127.627C943.376 124.425 947.453 117.331 945.06 111.782ZM898.049 98.1855C895.03 91.1865 884.992 88.7861 875.63 92.8242C866.268 96.8624 861.125 105.81 864.144 112.809C867.162 119.807 877.199 122.208 886.562 118.17C895.924 114.132 901.067 105.185 898.049 98.1855ZM972.012 100.158C971.622 99.2548 970.327 98.9446 969.118 99.4658C967.91 99.987 967.246 101.142 967.636 102.045C968.025 102.948 969.321 103.259 970.529 102.737C971.737 102.216 972.401 101.062 972.012 100.158ZM925.948 86.1523C924.765 83.4078 920.829 82.4663 917.157 84.0498C913.486 85.6333 911.47 89.1413 912.653 91.8857C913.837 94.6303 917.773 95.5718 921.444 93.9883C925.115 92.4048 927.132 88.8968 925.948 86.1523ZM871.153 75.9121C870.73 74.9313 869.324 74.5943 868.012 75.1602C866.7 75.726 865.979 76.9802 866.402 77.9609C866.825 78.9417 868.232 79.2787 869.544 78.7129C870.856 78.147 871.576 76.8929 871.153 75.9121ZM958.87 71.9521C958.627 71.389 957.819 71.1955 957.065 71.5205C956.312 71.8456 955.898 72.5663 956.141 73.1299C956.384 73.6934 957.192 73.8865 957.945 73.5615C958.699 73.2364 959.113 72.5157 958.87 71.9521ZM872.985 41.249C870.043 34.4263 860.258 32.0862 851.132 36.0225C842.005 39.9588 836.992 48.6812 839.935 55.5039C842.877 62.3264 852.661 64.6658 861.788 60.7295C870.914 56.7931 875.928 48.0717 872.985 41.249ZM908.233 59.9199C908.011 59.4037 907.27 59.2266 906.579 59.5244C905.889 59.8224 905.51 60.482 905.732 60.998C905.955 61.5142 906.695 61.6913 907.386 61.3936C908.076 61.0958 908.456 60.4361 908.233 59.9199ZM960.265 37.4785C957.58 31.2538 948.653 29.1186 940.326 32.71C932 36.3013 927.426 44.2587 930.11 50.4834C932.795 56.7082 941.722 58.8433 950.049 55.252C958.375 51.6606 962.949 43.7032 960.265 37.4785ZM905.271 27.3232C903.383 22.9443 897.102 21.4422 891.244 23.9688C885.386 26.4954 882.169 32.0944 884.058 36.4736C885.947 40.8527 892.227 42.3547 898.085 39.8281C903.943 37.3015 907.16 31.7025 905.271 27.3232ZM850.394 17.1191C849.28 14.5383 845.579 13.6535 842.126 15.1426C838.673 16.6318 836.776 19.9316 837.89 22.5127C839.003 25.0937 842.705 25.9783 846.157 24.4893C849.61 23.0001 851.507 19.7002 850.394 17.1191ZM941.913 11.5195C940.302 7.78588 934.948 6.50592 929.953 8.66016C924.958 10.8145 922.215 15.5874 923.825 19.3213C925.436 23.0553 930.79 24.3359 935.785 22.1816C940.78 20.0273 943.524 15.2535 941.913 11.5195Z" fill="url(#paint0_linear_295_474)"/>
<defs>
<linearGradient id="paint0_linear_295_474" x1="0" y1="71" x2="988" y2="71" gradientUnits="userSpaceOnUse">
<stop stop-color="#7BC7FA"/>
<stop offset="1" stop-color="#497694"/>
</linearGradient>
</defs>
</svg>
